<svg xmlns="http://www.w3.org/2000/svg" width="102.713" height="19.035" viewBox="0 0 102.713 19.035">
  <defs>
    <style>
      .cls-1 {
        fill: #f8f8f8;
      }
    </style>
  </defs>
  <g id="ohmyfood_2x" data-name="ohmyfood@2x" transform="translate(-0.36 -0.396)">
    <path id="Path_1" data-name="Path 1" class="cls-1" d="M7.488,7.956A5.407,5.407,0,0,1,11.27,9.083,3.815,3.815,0,0,1,12.5,12.033a7.077,7.077,0,0,1-.151,1.373A7.213,7.213,0,0,1,11,16.357,6.83,6.83,0,0,1,8.585,18.3,7.068,7.068,0,0,1,5.5,18.98a5.73,5.73,0,0,1-3.895-1.127A3.924,3.924,0,0,1,.36,14.82a7.474,7.474,0,0,1,.151-1.414,6.754,6.754,0,0,1,1.361-2.828A6.928,6.928,0,0,1,4.349,8.653,7.257,7.257,0,0,1,7.488,7.956ZM7.431,9.78q-.4,0-.851.779a14.76,14.76,0,0,0-1.04,2.889,13.015,13.015,0,0,0-.605,2.992,1.025,1.025,0,0,0,.132.615.465.465,0,0,0,.359.143q.4.041.813-.738a16.523,16.523,0,0,0,1.078-3.033A11.682,11.682,0,0,0,7.9,10.538a.98.98,0,0,0-.132-.594A.386.386,0,0,0,7.431,9.78Z" transform="translate(0 -3.257)"/>
    <path id="Path_2" data-name="Path 2" class="cls-1" d="M33.726,12.71a.613.613,0,0,0-.038.246.391.391,0,0,0,.057.225.247.247,0,0,0,.189.082.454.454,0,0,0,.378-.2q.17-.225.227-.225.095,0,.151.143a.733.733,0,0,1,.057.307,1.982,1.982,0,0,1-.359,1.168,2.861,2.861,0,0,1-1.116.922,3.959,3.959,0,0,1-1.739.348,3,3,0,0,1-1.985-.615,2.164,2.164,0,0,1-.756-1.68,5.067,5.067,0,0,1,.34-1.7l1.04-2.951a1.363,1.363,0,0,0,.095-.43.506.506,0,0,0-.17-.41.493.493,0,0,0-.378-.164,1.086,1.086,0,0,0-.737.369,2.567,2.567,0,0,0-.586,1.147V9.248L27.2,13.407a1.948,1.948,0,0,0-.057.43.856.856,0,0,0,.095.43,1.372,1.372,0,0,0,.265.287,1.358,1.358,0,0,1,.189.246.267.267,0,0,1,.019.225.654.654,0,0,1-.378.389,2.312,2.312,0,0,1-.87.123H22.155a1.242,1.242,0,0,1-.718-.164.423.423,0,0,1-.151-.471.791.791,0,0,1,.4-.43,1.755,1.755,0,0,0,.473-.389,1.9,1.9,0,0,0,.321-.717L25.35,3.142a1.086,1.086,0,0,0,.057-.307.577.577,0,0,0-.113-.369,1.372,1.372,0,0,0-.265-.287,2.093,2.093,0,0,1-.284-.287.406.406,0,0,1-.019-.328q.113-.471,1.191-.82A7.27,7.27,0,0,1,28.167.4a2.387,2.387,0,0,1,1.607.451A1.53,1.53,0,0,1,30.3,2.076a2.98,2.98,0,0,1-.132.881L29.15,6.563A4.419,4.419,0,0,1,30.7,5.109a4.01,4.01,0,0,1,1.8-.41,2.4,2.4,0,0,1,1.853.758,2.743,2.743,0,0,1,.718,1.967,4.228,4.228,0,0,1-.189,1.25Z" transform="translate(-9.926)"/>
    <path id="Path_3" data-name="Path 3" class="cls-1" d="M65.768,15.968a.613.613,0,0,0-.038.246.391.391,0,0,0,.057.225.247.247,0,0,0,.189.082.454.454,0,0,0,.378-.2q.17-.225.227-.225.095,0,.151.143a.733.733,0,0,1,.057.307,1.982,1.982,0,0,1-.359,1.168,2.861,2.861,0,0,1-1.116.922,3.959,3.959,0,0,1-1.739.348,3,3,0,0,1-1.985-.615,2.164,2.164,0,0,1-.756-1.68,5.067,5.067,0,0,1,.34-1.7l1.04-2.951a1.363,1.363,0,0,0,.095-.43.506.506,0,0,0-.17-.41.493.493,0,0,0-.378-.164,1.008,1.008,0,0,0-.662.307,2.593,2.593,0,0,0-.605.963l-1.04,3.668a.613.613,0,0,0-.038.246.391.391,0,0,0,.057.225.247.247,0,0,0,.189.082.454.454,0,0,0,.378-.2q.17-.225.227-.225.095,0,.151.143a.733.733,0,0,1,.057.307,1.982,1.982,0,0,1-.359,1.168A2.861,2.861,0,0,1,59,18.631a3.959,3.959,0,0,1-1.739.348,3,3,0,0,1-1.985-.615,2.164,2.164,0,0,1-.756-1.68,5.067,5.067,0,0,1,.34-1.7l1.04-2.951a1.363,1.363,0,0,0,.095-.43.506.506,0,0,0-.17-.41.493.493,0,0,0-.378-.164,1.008,1.008,0,0,0-.662.307,2.114,2.114,0,0,0-.567.943l-1.248,4.385a1.352,1.352,0,0,0-.076.43.81.81,0,0,0,.095.41,1.866,1.866,0,0,0,.265.307.961.961,0,0,1,.189.225.323.323,0,0,1,.019.246.592.592,0,0,1-.359.389,2.38,2.38,0,0,1-.889.123H47.9a1.149,1.149,0,0,1-.7-.164.454.454,0,0,1-.17-.471.791.791,0,0,1,.4-.43,1.755,1.755,0,0,0,.473-.389,1.9,1.9,0,0,0,.321-.717L49.9,10.7a.859.859,0,0,0,.038-.287.561.561,0,0,0-.095-.348,1.761,1.761,0,0,0-.265-.307,1.352,1.352,0,0,1-.265-.287.407.407,0,0,1-.019-.328q.113-.471,1.191-.82a6.9,6.9,0,0,1,2.25-.369,1.92,1.92,0,0,1,1.456.553,2,2,0,0,1,.529,1.516,4.713,4.713,0,0,1,1.626-1.619,4.009,4.009,0,0,1,1.872-.451,2.374,2.374,0,0,1,1.777.7,2.63,2.63,0,0,1,.775,1.783,5.12,5.12,0,0,1,1.739-1.926,3.874,3.874,0,0,1,2.023-.553,2.4,2.4,0,0,1,1.853.758,2.743,2.743,0,0,1,.718,1.967,4.229,4.229,0,0,1-.189,1.25Z" transform="translate(-22.153 -3.257)"/>
    <path id="Path_4" data-name="Path 4" class="cls-1" d="M94.608,7.94a1.518,1.518,0,0,1,1.324.738,3.338,3.338,0,0,1,.511,1.967,8.482,8.482,0,0,1-.359,2.336,15.618,15.618,0,0,1-2.25,4.754A13.383,13.383,0,0,1,90.3,21.32a7.014,7.014,0,0,1-3.971,1.352,3.682,3.682,0,0,1-1.7-.369,2.585,2.585,0,0,1-1.059-.984,2.46,2.46,0,0,1-.378-1.311,2.741,2.741,0,0,1,.095-.676,1.677,1.677,0,0,1,.567-.881,1.5,1.5,0,0,1,.945-.307,1.786,1.786,0,0,1,1.418.635,3.34,3.34,0,0,1,.719,1.783,3.3,3.3,0,0,0,2.231-1.127,2.546,2.546,0,0,1-1.437-.7A3.288,3.288,0,0,1,87.1,17.1l-.756-5.02a1.185,1.185,0,0,0-.17-.533.293.293,0,0,0-.265-.164.574.574,0,0,0-.321.143.5.5,0,0,1-.246.143q-.151,0-.151-.348a2.224,2.224,0,0,1,.095-.615A4.039,4.039,0,0,1,86.553,8.74a3.153,3.153,0,0,1,2.155-.82,2.051,2.051,0,0,1,1.777.779,4.861,4.861,0,0,1,.756,2.4l.567,4.508q.057.512.341.512.34,0,.794-.656a8.719,8.719,0,0,0,.889-1.906,3.849,3.849,0,0,1-.87-1.27,3.913,3.913,0,0,1-.3-1.537A4.047,4.047,0,0,1,92.812,9.6a2.439,2.439,0,0,1,.7-1.229A1.624,1.624,0,0,1,94.608,7.94Z" transform="translate(-39.326 -3.242)"/>
    <path id="Path_5" data-name="Path 5" class="cls-1" d="M115.1.4a5.456,5.456,0,0,1,3.025.676,1.9,1.9,0,0,1,1.021,1.619,1.4,1.4,0,0,1-.605,1.209,2.654,2.654,0,0,1-1.55.41,1.914,1.914,0,0,1-1.38-.471,1.553,1.553,0,0,1-.492-1.168,1.951,1.951,0,0,1,.246-.9,1.45,1.45,0,0,0-.945.307,1.876,1.876,0,0,0-.586,1,3.454,3.454,0,0,0-.113.84,1.681,1.681,0,0,0,.151.779.533.533,0,0,0,.473.266h1.116q.983,0,.983.656a1.208,1.208,0,0,1-.038.246,1.07,1.07,0,0,1-.473.676,1.91,1.91,0,0,1-1.04.225h-.567l-1.872,6.639a1.948,1.948,0,0,0-.057.43.857.857,0,0,0,.095.43,1.372,1.372,0,0,0,.265.287,1.358,1.358,0,0,1,.189.246.267.267,0,0,1,.019.225.654.654,0,0,1-.378.389,2.312,2.312,0,0,1-.87.123h-4.311a1.242,1.242,0,0,1-.718-.164.423.423,0,0,1-.151-.471.791.791,0,0,1,.4-.43,1.755,1.755,0,0,0,.473-.389,1.9,1.9,0,0,0,.321-.717L109.2,8.121a2.148,2.148,0,0,0,.095-.635,1.036,1.036,0,0,0-.17-.635,2.521,2.521,0,0,0-.473-.533q-.208-.184-.321-.307a.582.582,0,0,1-.095-.328.564.564,0,0,1,.246-.553,2.34,2.34,0,0,1,1.059-.164h.473a4.081,4.081,0,0,1-.132-1.024,3.619,3.619,0,0,1,.17-1.065,3.381,3.381,0,0,1,1.532-1.762A6.925,6.925,0,0,1,115.1.4Z" transform="translate(-50.404)"/>
    <path id="Path_6" data-name="Path 6" class="cls-1" d="M130.64,7.956a5.407,5.407,0,0,1,3.782,1.127,3.815,3.815,0,0,1,1.229,2.951,7.078,7.078,0,0,1-.151,1.373,7.213,7.213,0,0,1-1.342,2.951,6.83,6.83,0,0,1-2.42,1.947,7.068,7.068,0,0,1-3.082.676,5.73,5.73,0,0,1-3.895-1.127,3.924,3.924,0,0,1-1.248-3.033,7.474,7.474,0,0,1,.151-1.414,6.753,6.753,0,0,1,1.361-2.828A6.928,6.928,0,0,1,127.5,8.653,7.257,7.257,0,0,1,130.64,7.956Zm-.057,1.824q-.4,0-.851.779a14.76,14.76,0,0,0-1.04,2.889,13.015,13.015,0,0,0-.605,2.992,1.025,1.025,0,0,0,.132.615.465.465,0,0,0,.359.143q.4.041.813-.738a16.522,16.522,0,0,0,1.078-3.033,11.682,11.682,0,0,0,.586-2.889.98.98,0,0,0-.132-.594A.386.386,0,0,0,130.583,9.78Z" transform="translate(-58.471 -3.257)"/>
    <path id="Path_7" data-name="Path 7" class="cls-1" d="M154.265,7.956a5.407,5.407,0,0,1,3.782,1.127,3.815,3.815,0,0,1,1.229,2.951,7.078,7.078,0,0,1-.151,1.373,7.213,7.213,0,0,1-1.342,2.951,6.831,6.831,0,0,1-2.42,1.947,7.068,7.068,0,0,1-3.082.676,5.73,5.73,0,0,1-3.895-1.127,3.924,3.924,0,0,1-1.248-3.033,7.472,7.472,0,0,1,.151-1.414,6.753,6.753,0,0,1,1.361-2.828,6.928,6.928,0,0,1,2.477-1.926A7.257,7.257,0,0,1,154.265,7.956Zm-.057,1.824q-.4,0-.851.779a14.76,14.76,0,0,0-1.04,2.889,13.016,13.016,0,0,0-.605,2.992,1.025,1.025,0,0,0,.132.615.465.465,0,0,0,.359.143q.4.041.813-.738a16.522,16.522,0,0,0,1.078-3.033,11.682,11.682,0,0,0,.586-2.889.98.98,0,0,0-.132-.594A.386.386,0,0,0,154.208,9.78Z" transform="translate(-69.688 -3.257)"/>
    <path id="Path_8" data-name="Path 8" class="cls-1" d="M181.176,12.588a1.216,1.216,0,0,0-.038.225.32.32,0,0,0,.076.225.247.247,0,0,0,.189.082.454.454,0,0,0,.378-.2q.17-.225.227-.225.095,0,.151.143a.886.886,0,0,1,.057.328,1.812,1.812,0,0,1-.4,1.127,3.146,3.146,0,0,1-2.553,1.311,3.329,3.329,0,0,1-1.645-.389,2.1,2.1,0,0,1-.964-1.024,3.39,3.39,0,0,1-1.172,1.065,2.962,2.962,0,0,1-1.4.348,3.02,3.02,0,0,1-1.626-.471,3.446,3.446,0,0,1-1.191-1.332,4.431,4.431,0,0,1-.435-1.988,9.51,9.51,0,0,1,.643-3.5,6.69,6.69,0,0,1,1.834-2.664,3.939,3.939,0,0,1,2.666-1.024,4.084,4.084,0,0,1,1.38.2,3.23,3.23,0,0,1,1.059.615l.643-2.295a1.086,1.086,0,0,0,.057-.307A.576.576,0,0,0,179,2.465a1.372,1.372,0,0,0-.265-.287,2.094,2.094,0,0,1-.284-.287.406.406,0,0,1-.019-.328q.113-.471,1.191-.82A7.27,7.27,0,0,1,181.876.4a2.387,2.387,0,0,1,1.607.451,1.53,1.53,0,0,1,.529,1.229,2.98,2.98,0,0,1-.132.881ZM178.019,6.83a.944.944,0,0,0-.662-.287q-.548,0-1.078.881a7.994,7.994,0,0,0-.851,2.131,8.493,8.493,0,0,0-.3,2.254q0,1.127.681,1.127a.522.522,0,0,0,.416-.2,2.408,2.408,0,0,0,.321-.717Z" transform="translate(-80.939)"/>
  </g>
</svg>
